<?xml version="1.0" encoding="UTF-8" standalone="no"?>
<!-- Created with Inkscape (http://www.inkscape.org/) -->

<svg
   xmlns:dc="http://purl.org/dc/elements/1.1/"
   xmlns:cc="http://creativecommons.org/ns#"
   xmlns:rdf="http://www.w3.org/1999/02/22-rdf-syntax-ns#"
   xmlns:svg="http://www.w3.org/2000/svg"
   xmlns="http://www.w3.org/2000/svg"
   xmlns:sodipodi="http://sodipodi.sourceforge.net/DTD/sodipodi-0.dtd"
   xmlns:inkscape="http://www.inkscape.org/namespaces/inkscape"
   width="15"
   height="11"
   id="svg2"
   version="1.1"
   inkscape:version="0.48.3.1 r9886"
   sodipodi:docname="Speaker icon.svg">
  <defs
     id="defs4" />
  <sodipodi:namedview
     id="base"
     pagecolor="#ffffff"
     bordercolor="#666666"
     borderopacity="1.0"
     inkscape:pageopacity="0.0"
     inkscape:pageshadow="2"
     inkscape:zoom="1"
     inkscape:cx="7.5695013"
     inkscape:cy="1.121758"
     inkscape:document-units="px"
     inkscape:current-layer="layer1"
     showgrid="false"
     showborder="true"
     inkscape:window-width="1920"
     inkscape:window-height="1176"
     inkscape:window-x="0"
     inkscape:window-y="24"
     inkscape:window-maximized="1"
     fit-margin-top="0"
     fit-margin-left="0"
     fit-margin-right="0"
     fit-margin-bottom="0"
     inkscape:showpageshadow="false">
    <inkscape:grid
       type="xygrid"
       id="grid2985"
       empspacing="8"
       visible="true"
       enabled="true"
       snapvisiblegridlinesonly="true"
       spacingx="0.125px"
       spacingy="0.125px"
       originx="-21px"
       originy="-1.0000174px" />
  </sodipodi:namedview>
  <metadata
     id="metadata7">
    <rdf:RDF>
      <cc:Work
         rdf:about="">
        <dc:format>image/svg+xml</dc:format>
        <dc:type
           rdf:resource="http://purl.org/dc/dcmitype/StillImage" />
        <dc:title></dc:title>
      </cc:Work>
    </rdf:RDF>
  </metadata>
  <g
     inkscape:label="Layer 1"
     inkscape:groupmode="layer"
     id="layer1"
     transform="translate(-21,-1040.3622)">
    <path
       style="fill:#969696;fill-opacity:1;stroke:#0000ff;stroke-width:0;stroke-linecap:butt;stroke-linejoin:miter;stroke-miterlimit:4;stroke-opacity:0;stroke-dashoffset:1009.13382508000017879"
       d="M 7 0 L 3.5 3 L 0 3 L 0 8 L 3.5 8 L 7 11 L 7 0 z M 12.9375 0.4375 L 12 0.84375 C 12.935794 2.15885 13.5 3.7648 13.5 5.5 C 13.5 7.2352 12.935794 8.84105 12 10.15625 L 12.9375 10.5625 C 13.921777 9.1246 14.5 7.3764 14.5 5.5 C 14.5 3.6236 13.921777 1.8754 12.9375 0.4375 z M 11.03125 1.25 L 10.09375 1.625 C 10.974439 2.6715 11.5 4.0213 11.5 5.5 C 11.5 6.9787 10.974439 8.3285 10.09375 9.375 L 11.03125 9.75 C 11.946229 8.5688 12.5 7.1086 12.5 5.5 C 12.5 3.8914 11.946229 2.4312 11.03125 1.25 z M 9.09375 2.03125 L 8.09375 2.46875 C 8.952946 3.20105 9.5 4.2776 9.5 5.5 C 9.5 6.7224 8.952946 7.79885 8.09375 8.53125 L 9.09375 8.96875 C 9.968074 8.07025 10.5 6.8464 10.5 5.5 C 10.5 4.1536 9.968074 2.92965 9.09375 2.03125 z "
       transform="translate(21,1040.3622)"
       id="path1339" />
  </g>
</svg>
